<svg width="23" height="25" viewBox="0 0 23 25" fill="none" xmlns="http://www.w3.org/2000/svg">
<path fill-rule="evenodd" clip-rule="evenodd" d="M8.82288 21.2401C8.81014 21.3392 8.80286 21.4398 8.80286 21.5422C8.80286 22.8996 9.95383 24 11.3736 24C12.7935 24 13.9445 22.8996 13.9445 21.5422C13.9445 21.4398 13.9371 21.3392 13.9244 21.2401H8.82288Z" stroke="white"/>
<path d="M19.6507 17.0798H19.6243C18.9531 16.8842 18.4626 16.2632 18.4626 15.5269V11.4007C18.4626 11.3963 18.4624 11.392 18.4624 11.3876C18.4648 11.311 18.4665 11.2342 18.4665 11.1569C18.4665 7.21766 15.282 4.02422 11.3539 4.02422C7.42562 4.02422 4.24119 7.21766 4.24119 11.1569C4.24119 11.2052 4.24207 11.2533 4.243 11.3014C4.2426 11.3345 4.24119 11.3675 4.24119 11.4007V15.5269C4.24119 16.2632 3.75028 16.8842 3.07892 17.0798H3.05254C1.91893 17.0798 1 18.0013 1 19.1382C1 20.2749 1.91893 21.1966 3.05254 21.1966H19.6507C20.7843 21.1966 21.7033 20.2749 21.7033 19.1382C21.7032 18.0013 20.7843 17.0798 19.6507 17.0798" stroke="white"/>
<circle cx="11.5" cy="2.48068" r="1.5" stroke="white"/>
</svg>
