<svg width="20" height="21" viewBox="0 0 20 21" fill="none" xmlns="http://www.w3.org/2000/svg">
<path d="M16 7C16 5.4087 15.3679 3.88258 14.2426 2.75736C13.1174 1.63214 11.5913 1 10 1C8.4087 1 6.88258 1.63214 5.75736 2.75736C4.63214 3.88258 4 5.4087 4 7C4 14 1 16 1 16H19C19 16 16 14 16 7Z" stroke="black" stroke-linecap="round" stroke-linejoin="round"/>
<path d="M11.73 19C11.5542 19.3031 11.3019 19.5547 10.9982 19.7295C10.6946 19.9044 10.3504 19.9965 10 19.9965C9.64964 19.9965 9.30541 19.9044 9.00179 19.7295C8.69818 19.5547 8.44583 19.3031 8.27002 19" stroke="black" stroke-linecap="round" stroke-linejoin="round"/>
</svg>
