<svg width="14" height="15" viewBox="0 0 14 15" fill="none" xmlns="http://www.w3.org/2000/svg">
<path fill-rule="evenodd" clip-rule="evenodd" d="M6.30488 10.9578L3.74215 9.47818C3.59145 9.39112 3.49859 9.23033 3.49859 9.05629V6.04594L0 4.06239V10.889C0 11.1789 0.154647 11.4468 0.40575 11.5918L6.30497 14.9976V10.9578H6.30488ZM9.76082 6.04375V9.0569C9.76082 9.23059 9.66814 9.39121 9.51761 9.47818L6.95076 10.9601V15L12.8538 11.5919C13.1049 11.4469 13.2595 11.179 13.2595 10.8891V4.06029L9.76082 6.04375ZM3.89899 5.49099L6.38624 4.05502C6.53694 3.96813 6.72248 3.96813 6.87317 4.05493L9.33787 5.47791L12.8717 3.4783L7.03546 0.10881C6.78444 -0.03627 6.47506 -0.03627 6.22404 0.10881L0.379946 3.48286L3.89899 5.49099Z" fill="#4A4A4A"/>
</svg>
